<?xml version="1.0" encoding="utf-8"?>
<!-- Generator: Adobe Illustrator 27.5.0, SVG Export Plug-In . SVG Version: 6.00 Build 0)  -->
<svg version="1.1" xmlns="http://www.w3.org/2000/svg" xmlns:xlink="http://www.w3.org/1999/xlink" x="0px" y="0px"
	 viewBox="0 0 750 500" style="enable-background:new 0 0 750 500;" xml:space="preserve">
<g id="BACKGROUND">
	<rect style="fill:#CCF0FC;" width="750" height="500"/>
</g>
<g id="OBJECT">
	<g>
		<g>
			<ellipse style="fill:#A0D8EB;" cx="153.449" cy="441.825" rx="132.374" ry="20.051"/>
			<ellipse style="fill:#A0D8EB;" cx="368.116" cy="452.265" rx="132.374" ry="20.051"/>
			<ellipse style="fill:#A0D8EB;" cx="544.226" cy="449.416" rx="132.374" ry="20.051"/>
		</g>
	</g>
	<g>
		<g>
			<g>
				<path style="fill:#00417A;" d="M209.275,313.943c-26.466-11.577-47.355-35.237-55.564-62.933
					c-4.634-15.635-5.476-32.523-12.83-47.077c-4.806-9.511-12.139-17.482-17.958-26.41c-14.208-21.798-18.886-49.578-12.602-74.827
					c0.415,17.757,10.852,34.115,24.527,45.449c8.39,6.954,18.693,11.799,25.446,20.352c6.599,8.357,8.994,19.316,9.543,29.951
					c0.549,10.635-0.55,21.302-0.028,31.938c1.628,33.166,20.066,65.076,47.989,83.048
					C215.537,313.273,211.351,314.851,209.275,313.943z"/>
				<path style="fill:#CCF0FC;" d="M214.863,318.469c-30.297-21.149-50.188-55.157-53.835-91.92
					c-1.805-18.198,0.82-37.529-10.349-53.324c-8.986-12.707-26.447-17.841-31.923-33.259c-0.508-1.43-2.799-0.814-2.286,0.63
					c5.178,14.578,20.44,20.863,30.363,31.64c14.652,15.913,9.65,40.493,12.489,60.06c5.147,35.48,24.942,67.695,54.345,88.22
					C214.923,321.394,216.106,319.337,214.863,318.469z"/>
			</g>
			<g>
				<g>
					<path style="fill:#00417A;" d="M562.889,386.57c15.218,2.396,30.837-4.583,41.783-15.423
						c10.946-10.84,17.815-25.129,22.997-39.637c5.182-14.508,8.895-29.534,14.687-43.809c5.792-14.275,13.945-28.054,26.177-37.419
						c-15.136,1.591-28.897,12.448-37.106,25.264c-8.208,12.817-12.382,27.734-16.424,42.407
						c-4.042,14.673-8.169,29.596-16.301,42.462C590.57,373.281,578.005,384.799,562.889,386.57z"/>
					<path style="fill:#CCF0FC;" d="M650.963,259.019c-18.234,18.408-23.498,44.241-30.808,68.155
						c-7.541,24.669-21.516,52.439-49.784,56.865c-1.507,0.236-0.865,2.52,0.63,2.286c24.33-3.81,39.157-25.258,47.425-46.687
						c10.346-26.816,13.052-57.579,34.213-78.942C653.716,259.608,652.04,257.932,650.963,259.019z"/>
				</g>
				<g>
					<path style="fill:#008CC1;" d="M562.853,390.127c-11.512-25.041-10.173-55.596,3.486-79.534
						c7.949-13.93,19.711-25.621,26.048-40.354c7.132-16.583,6.7-35.35,10.94-52.898c5.859-24.251,21.071-46.116,41.772-60.042
						c-9.677,24.142,2.164,51.717-6.626,76.196c-7.715,21.482-29.907,36.019-35.062,58.255c-4.329,18.676,4.53,38.175,2.077,57.188
						C602.737,370.269,584.225,387.717,562.853,390.127z"/>
					<path style="fill:#CCF0FC;" d="M629.116,195.039c-1.512,37.889-27.183,67.585-40.944,101.369
						c-7.15,17.553-8.875,35.164-10.967,53.811c-1.962,17.483-6.976,36.443-22.437,46.786c-1.264,0.845-0.078,2.9,1.196,2.047
						c12.713-8.504,18.894-22.656,21.869-37.209c2.006-9.818,2.525-19.908,3.625-29.849c1.186-10.732,3.667-21.002,7.461-31.101
						c13.435-35.768,40.984-66.144,42.569-105.854C631.548,193.509,629.177,193.515,629.116,195.039z"/>
				</g>
			</g>
			<g>
				<g>
					<g>
						<path style="fill:#008CC1;" d="M194.813,306.654c-19.327-46.488-61.504-81.64-110.796-92.056
							c-1.491-0.315-2.126,1.97-0.63,2.286c48.418,10.232,90.129,44.672,109.14,90.4
							C193.104,308.674,195.399,308.065,194.813,306.654z"/>
						<path style="fill:#008CC1;" d="M96.326,218.973c0,0-13.265-13.795-36.433-5.836C59.892,213.137,74.572,225.164,96.326,218.973
							z"/>
						<path style="fill:#008CC1;" d="M111.085,223.98c0,0,4.504-18.6-14.66-33.86C96.425,190.12,94.173,208.962,111.085,223.98z"/>
						<path style="fill:#008CC1;" d="M112.698,225.288c0,0-18.871-3.183-32.744,17.008
							C79.953,242.295,98.908,243.215,112.698,225.288z"/>
						<path style="fill:#008CC1;" d="M133.921,236.593c0,0-18.871-3.183-32.744,17.008
							C101.177,253.601,120.131,254.521,133.921,236.593z"/>
						<path style="fill:#008CC1;" d="M150.293,247.382c0,0-18.871-3.183-32.744,17.008
							C117.549,264.389,136.503,265.309,150.293,247.382z"/>
						<path style="fill:#008CC1;" d="M163.209,259.762c0,0-18.871-3.183-32.744,17.008
							C130.464,276.77,149.419,277.689,163.209,259.762z"/>
						<path style="fill:#008CC1;" d="M134.049,236.41c0,0,8.834-16.977-6.11-36.388C127.939,200.022,121.233,217.774,134.049,236.41
							z"/>
						<path style="fill:#008CC1;" d="M149.165,248.499c0,0,13.225-13.833,4.3-36.646
							C153.465,211.852,142.066,227.024,149.165,248.499z"/>
					</g>
					<path style="fill:#008CC1;" d="M178.876,278.204c0,0,12.157-12.714,3.953-33.684
						C182.829,244.52,172.352,258.465,178.876,278.204z"/>
				</g>
			</g>
			<g>
				<g>
					<g>
						<path style="fill:#07587A;" d="M564.679,382.801l-0.438,0.474l-1.885,7.574H217.024l-15.468-9.139l-0.356-0.213
							l-48.243-26.836l359.389,0.012h2.857l48.242,26.824C563.991,381.793,564.418,382.256,564.679,382.801z"/>
						<path style="fill:#FFFFFF;" d="M204.841,403.976v24.547l-3.377,10.274l-1.275,3.868l-45.291-24.721
							c4.489-13.684,4.892-30.157,1.852-48.995c-0.523-3.214-1.133-6.483-1.852-9.827l43.308,23.174l3.247,7.714L204.841,403.976z"
							/>
						<path style="fill:#BCD9E9;" d="M201.464,438.796l-1.275,3.868l-45.291-24.721c4.489-13.684,4.892-30.157,1.852-48.995
							L201.464,438.796z"/>
						<path style="fill:#03A9F5;" d="M564.169,443.643c-0.379,0.842-1.233,1.387-2.157,1.387H199.766
							c-1.019,0-1.932-0.652-2.252-1.636l-0.249-0.759c13.477-16.334,11.367-42.778,0.948-60.345
							c0.427-0.367,0.972-0.581,1.553-0.581h362.246c0.996,0,1.885,0.628,2.228,1.565
							C572.324,405.476,572.3,425.792,564.169,443.643z"/>
						<g>
							<path style="fill:#07587A;" d="M199.761,445.619c-0.499,0-0.995-0.126-1.44-0.374l-48.244-26.832
								c-1.43-0.795-1.945-2.6-1.149-4.029c0.796-1.431,2.6-1.945,4.031-1.149l45.364,25.23c6.126-15.541,5.8-33.125-0.975-52.332
								l-47.27-26.29c-1.43-0.795-1.945-2.6-1.149-4.029c0.796-1.431,2.6-1.945,4.031-1.15l48.244,26.832
								c0.623,0.346,1.1,0.906,1.344,1.577c8.131,22.357,8.102,42.817-0.088,60.811c-0.343,0.754-0.984,1.329-1.77,1.588
								C200.385,445.571,200.073,445.619,199.761,445.619z"/>
						</g>
					</g>
					<g>
						<g>
							<path style="fill:#07587A;" d="M267.4,445.03h-7.799c8.487-17.946,8.534-39.222,0.166-63.32h7.515
								C275.034,405.369,275.081,426.622,267.4,445.03z"/>
						</g>
						<g>
							<path style="fill:#07587A;" d="M520.478,445.03h-7.799c8.487-17.946,8.534-39.222,0.166-63.32h7.515
								C528.112,405.369,528.159,426.622,520.478,445.03z"/>
						</g>
					</g>
					<path style="fill:#00417A;" d="M462.999,426.872H325.486c-7.457,0-13.502-6.045-13.502-13.502v0
						c0-7.457,6.045-13.502,13.502-13.502h137.514c7.457,0,13.502,6.045,13.502,13.502v0
						C476.502,420.827,470.456,426.872,462.999,426.872z"/>
				</g>
				<g>
					<path style="fill:#FFFFFF;" d="M556.357,365.299l-56.458,4.38l-1.493,0.12l-4.935-9.326v-33.35l7.18-9.435l52.645-3.999
						l3.061-0.229C549.82,332.951,549.711,350.263,556.357,365.299z"/>
					<path style="fill:#BCD9E9;" d="M556.357,365.299l-56.458,4.38l53.396-55.989l3.061-0.229
						C549.82,332.951,549.711,350.263,556.357,365.299z"/>
					<path style="fill:#018ABE;" d="M558.844,307.65l-15.966,5.595l-42.257,0.202h-0.012l-0.972,2.276l-2.572,6.01l-0.51,2.94
						l-2.892,16.476l-0.024,0.119l-1.067,6.069l3.591,15.279l3.094,12.268H182.575c-0.13,0.012-0.261,0.012-0.403,0.012
						c-1.588,0-3.058-0.913-3.746-2.371c-8.902-18.894-8.902-37.978,0-56.718c0.51-1.079,1.458-1.861,2.584-2.193l0.77-0.154h0.036
						l60.345-5.808H558.844z"/>
					<path style="fill:#018ABE;" d="M496.164,362.613l3.094,12.268H182.575c-0.13,0.012-0.261,0.012-0.403,0.012
						c-1.588,0-3.058-0.913-3.746-2.371c-8.902-18.894-8.902-37.978,0-56.718c0.51-1.079,1.458-1.861,2.584-2.193l0.77-0.154
						h316.682l1.174,2.264l1.019,1.968l-4.101,6.982l-0.391,0.652l-2.501,15.824l-0.024,0.119L496.164,362.613z"/>
					<g>
						<path style="fill:#66A6CC;" d="M498.856,374.898c-1.594,0-3.063-0.918-3.752-2.38c-8.9-18.888-8.899-37.969,0.006-56.714
							c0.625-1.317,1.898-2.21,3.35-2.35l60.38-5.802c2.303-0.221,4.307,1.453,4.527,3.733c0.219,2.281-1.453,4.307-3.733,4.527
							l-57.995,5.572c-6.535,15.011-6.607,29.73-0.212,44.849l57.413-5.518c2.303-0.216,4.307,1.453,4.527,3.733
							c0.219,2.28-1.453,4.307-3.733,4.527l-60.38,5.803C499.122,374.892,498.988,374.898,498.856,374.898z"/>
					</g>
				</g>
				<g>
					<path style="fill:#FFFFFF;" d="M539.143,309.723l-22.575,1.743l-1.928-3.628v-12.987l2.8-3.682l21.082-1.602l0.621-0.044
						C536.594,297.118,536.55,303.862,539.143,309.723z"/>
					<path style="fill:#BCD9E9;" d="M539.143,309.723l-22.575,1.743l21.953-21.899l0.621-0.044
						C536.594,297.118,536.55,303.862,539.143,309.723z"/>
					<path style="fill:#81D4FC;" d="M540.108,287.261l-6.22,2.179l-16.461,0.078h-0.005l-0.379,0.887l-1.002,2.341l-0.198,1.145
						l-1.127,6.418l-0.009,0.046l-0.415,2.364l1.399,5.952l1.205,4.779h-326.28c-0.051,0.005-0.102,0.005-0.157,0.005
						c-0.619,0-1.191-0.355-1.459-0.923c-3.468-7.36-3.468-14.794,0-22.094c0.199-0.42,0.568-0.725,1.007-0.854l0.3-0.06h0.014
						l23.507-2.263H540.108z"/>
					<g>
						<path style="fill:#4EA4C6;" d="M516.74,313.458c-0.621,0-1.193-0.358-1.461-0.927c-3.467-7.358-3.467-14.791,0.002-22.093
							c0.244-0.513,0.74-0.861,1.305-0.915l23.521-2.26c0.897-0.086,1.678,0.566,1.764,1.454c0.085,0.889-0.566,1.678-1.454,1.764
							l-22.592,2.171c-2.546,5.848-2.574,11.582-0.083,17.471l22.365-2.15c0.897-0.084,1.678,0.566,1.764,1.454
							c0.085,0.888-0.566,1.678-1.454,1.763l-23.521,2.261C516.843,313.456,516.791,313.458,516.74,313.458z"/>
					</g>
				</g>
				<g>
					<path style="fill:#FFFFFF;" d="M577.319,279.424l-57.831,4.489l-3.16,0.24l-5.197-9.805v-35.104l7.561-9.936l58.626-4.456
						c-0.131,0.403-0.262,0.795-0.392,1.198C570.445,246.075,570.466,263.899,577.319,279.424z"/>
					<path style="fill:#BCD9E9;" d="M577.319,279.424l-57.831,4.489l57.438-57.863C570.445,246.075,570.466,263.899,577.319,279.424
						z"/>
					<path style="fill:#07587A;" d="M579.941,218.741l-16.805,5.889l-44.478,0.212h-0.013l-1.023,2.396l-2.707,6.325l-0.536,3.094
						l-3.044,17.342l-0.025,0.125l-1.123,6.388l3.78,16.082l3.256,12.913H183.897c-0.137,0.013-0.274,0.013-0.424,0.013
						c-1.672,0-3.219-0.961-3.943-2.495c-9.37-19.887-9.37-39.974,0-59.698c0.536-1.135,1.535-1.959,2.72-2.308l0.811-0.162h0.037
						l63.516-6.113H579.941z"/>
					<path style="fill:#03A9F5;" d="M513.967,276.593l3.256,12.913H183.897c-0.137,0.013-0.274,0.013-0.424,0.013
						c-1.672,0-3.219-0.961-3.943-2.495c-9.37-19.887-9.37-39.974,0-59.698c0.536-1.135,1.535-1.959,2.72-2.308l0.811-0.162h333.326
						l1.235,2.383l1.073,2.071l-4.317,7.348l-0.412,0.686l-2.633,16.656l-0.025,0.125L513.967,276.593z"/>
					<path style="fill:#00417A;" d="M422.055,242.94v-6.856H281.688v6.856c-7.865,0-14.24,6.376-14.24,14.24
						c0,7.865,6.376,14.24,14.24,14.24v6.857h140.367v-6.857c7.865,0,14.24-6.376,14.24-14.24
						C436.295,249.316,429.92,242.94,422.055,242.94z"/>
					<g>
						<g>
							<path style="fill:#07587A;" d="M516.801,289.524c-1.678,0-3.224-0.966-3.949-2.505c-9.368-19.88-9.367-39.964,0.006-59.694
								c0.658-1.386,1.998-2.326,3.526-2.473l63.553-6.106c2.425-0.233,4.534,1.529,4.765,3.929c0.23,2.401-1.529,4.534-3.929,4.765
								l-61.043,5.865c-6.879,15.8-6.954,31.293-0.223,47.206l60.43-5.808c2.425-0.228,4.534,1.529,4.765,3.929
								c0.23,2.4-1.529,4.534-3.929,4.765l-63.553,6.108C517.08,289.518,516.94,289.524,516.801,289.524z"/>
						</g>
					</g>
				</g>
				<g>
					<path style="fill:#FFFFFF;" d="M196.746,189.279v24.841l-1.983,3.737l-1.7,3.203l-43.144-3.356
						c4.946-11.189,4.87-24.089,0-38.601l6.613,0.501l34.864,2.648L196.746,189.279z"/>
					<path style="fill:#BCD9E9;" d="M194.763,217.857l-1.7,3.203l-43.144-3.356c4.946-11.189,4.87-24.089,0-38.601l6.613,0.501
						L194.763,217.857z"/>
					<path style="fill:#00417A;" d="M148.066,174.781l11.889,4.166l31.464,0.15h0.009l0.724,1.695l1.915,4.475l0.38,2.189
						l2.154,12.268l0.018,0.088l0.794,4.519l-2.674,11.377l-2.304,9.135h376.845c0.097,0.009,0.194,0.009,0.3,0.009
						c1.183,0,2.277-0.68,2.789-1.765c6.628-14.068,6.628-28.278,0-42.232c-0.38-0.803-1.086-1.386-1.924-1.633l-0.574-0.115h-0.026
						l-44.933-4.325H148.066z"/>
					<path style="fill:#81D4FC;" d="M194.737,215.707l-2.304,9.135h376.845c0.097,0.009,0.194,0.009,0.3,0.009
						c1.183,0,2.277-0.68,2.789-1.765c6.628-14.068,6.628-28.278,0-42.232c-0.38-0.803-1.086-1.386-1.924-1.633l-0.574-0.115
						H193.025l-0.874,1.686l-0.759,1.465l3.054,5.199l0.291,0.485l1.862,11.783l0.018,0.088L194.737,215.707z"/>
					<g>
						<path style="fill:#07587A;" d="M192.733,224.854c1.187,0,2.281-0.683,2.793-1.772c6.627-14.064,6.626-28.271-0.004-42.229
							c-0.465-0.981-1.413-1.645-2.494-1.75l-44.959-4.32c-1.715-0.165-3.207,1.082-3.371,2.78c-0.163,1.699,1.082,3.207,2.78,3.371
							l43.183,4.149c4.866,11.177,4.92,22.137,0.158,33.395l-42.75-4.109c-1.715-0.161-3.207,1.082-3.371,2.78
							c-0.163,1.698,1.082,3.207,2.78,3.371l44.959,4.321C192.535,224.85,192.634,224.854,192.733,224.854z"/>
					</g>
				</g>
				<g>
					<path style="fill:#FFFFFF;" d="M577.319,168.633l-60.99,4.729l-1.089-2.048l-4.107-7.768v-35.104l7.561-9.925l58.626-4.456
						c-0.316,0.937-0.61,1.874-0.904,2.8C570.445,136.242,570.641,153.521,577.319,168.633z"/>
					<path style="fill:#BCD9E9;" d="M577.319,168.633l-60.99,4.729l-1.089-2.048l61.175-54.453
						C570.445,136.242,570.641,153.521,577.319,168.633z"/>
					<path style="fill:#07587A;" d="M579.941,107.947l-16.805,5.889l-44.478,0.212h-0.013l-1.023,2.395l-2.707,6.326l-0.536,3.094
						l-3.044,17.342l-0.025,0.125l-1.123,6.388l3.78,16.082l3.256,12.913H183.897c-0.137,0.013-0.274,0.013-0.424,0.013
						c-1.672,0-3.219-0.961-3.943-2.495c-9.37-19.887-9.37-39.974,0-59.698c0.536-1.135,1.535-1.959,2.72-2.308l0.811-0.162h0.037
						l63.516-6.113H579.941z"/>
					<path style="fill:#03A9F5;" d="M513.967,165.799l3.256,12.913H183.897c-0.137,0.013-0.274,0.013-0.424,0.013
						c-1.672,0-3.219-0.961-3.943-2.495c-9.37-19.887-9.37-39.974,0-59.698c0.536-1.135,1.535-1.959,2.72-2.308l0.811-0.162h333.326
						l1.235,2.383l1.073,2.071l-4.317,7.349l-0.412,0.686l-2.633,16.656l-0.025,0.125L513.967,165.799z"/>
					<path style="fill:#018ABE;" d="M422.055,132.146v-6.856H281.688v6.856c-7.865,0-14.24,6.376-14.24,14.24
						s6.376,14.24,14.24,14.24v6.856h140.367v-6.856c7.865,0,14.24-6.376,14.24-14.24S429.92,132.146,422.055,132.146z"/>
					<g>
						<g>
							<path style="fill:#0282BD;" d="M516.801,178.73c-1.678,0-3.224-0.966-3.949-2.505c-9.368-19.88-9.367-39.964,0.006-59.694
								c0.658-1.386,1.998-2.326,3.526-2.473l63.553-6.106c2.425-0.233,4.534,1.529,4.765,3.929c0.23,2.401-1.529,4.534-3.929,4.765
								l-61.043,5.865c-6.879,15.8-6.954,31.293-0.223,47.206l60.43-5.808c2.425-0.228,4.534,1.529,4.765,3.929
								c0.23,2.4-1.529,4.534-3.929,4.765l-63.553,6.108C517.08,178.723,516.94,178.73,516.801,178.73z"/>
						</g>
					</g>
				</g>
			</g>
		</g>
		<g>
			<g>
				<g>
					<path style="fill:#FFB8B5;" d="M375.115,438.733l-7.112,27.065h-30.818c0,0,5.136-8.297,16.594-8.692l0.79-16.792
						L375.115,438.733"/>
					<path style="fill:#5D3B4C;" d="M353.78,457.082l-0.001,0.024c-11.458,0.395-16.594,8.692-16.594,8.692h30.818l2.29-8.716
						H353.78z"/>
					<path style="fill:#FFB8B5;" d="M445.469,189.306l-9.902,15.623c0,0,16.874,27.826,31.357,22.174
						c14.483-5.652-8.539-40.25-8.539-40.25l-8.881,2.1L445.469,189.306z"/>
					<path style="fill:#D57C78;" d="M455.637,213.65c-3.481-6.787-3.793-14.235-1.037-21.329c0.509-1.312-1.598-1.874-2.101-0.579
						c-2.97,7.645-2.48,15.724,1.256,23.008C454.397,216.001,456.277,214.898,455.637,213.65z"/>
					<path style="fill:#5D3B4C;" d="M458.384,186.852c-6.899,7.254-14.402,13.453-22.817,18.076l-5.227-9.471l-5.737-10.383
						l-5.038-36.449v-5.737l0.225,0.059c0.522,0.166,1.932,0.652,4.03,1.79C430.588,148.401,444.492,158.843,458.384,186.852z"/>
					<path style="fill:#182F58;" d="M356.198,135.591c0,0,47.876,14.279,72.653-2.73c0,0-4.619-14.699-9.029-30.237
						s-16.589-23.308-27.298-22.888c-10.709,0.42-24.778,10.289-28.557,27.717C360.188,124.882,356.198,135.591,356.198,135.591z"/>
					<path style="fill:#5D3B4C;" d="M430.529,195.446l-0.19,0.012l-58.187,4.433l1.316-22.521l1.944-33.391v-0.095l6.495-2.489
						l8.617-3.319h8.89l12.695,3.034l6.199,1.482l1.256,0.296l0.225,0.059c0.522,0.166,1.932,0.652,4.03,1.79l3.674,27.808
						L430.529,195.446z"/>
					<path style="fill:#F79100;" d="M443.863,286.419c-1.185,21.336-15.409,152.314-15.409,152.314h-21.632l-2.133-93.142
						l-0.237-10.621l-0.557,2.134l-26.409,101.629h-25.781l11.557-139.512c0,0-0.593-29.989,2.963-46.879
						c3.556-16.891,5.927-28.448,5.927-28.448V177.37h5.334l-2.074-33.391v-0.095l6.495-2.489l4.315,34.386l28.602-1.873
						l-2.714-32.798l6.199,1.482l4.564,29.953h9.139l2.371,57.95C434.381,230.496,445.049,265.083,443.863,286.419z"/>
					<path style="fill:#FFB44A;" d="M378.398,230.566c-3.014,70.105-10.653,139.959-22.913,209.062
						c-0.265,1.495,2.019,2.134,2.286,0.63c12.296-69.31,19.974-139.375,22.997-209.692H378.398z"/>
					<path style="fill:#FFB8B5;" d="M397.988,150.918c-12.518,1.471-11.767-8.607-11.767-8.607l1.863-11.941l0.665-4.227
						l13.63-1.046l1.787,8.498l1.591,7.605C405.756,141.199,408.697,149.665,397.988,150.918z"/>
					<path style="fill:#D57C78;" d="M404.165,133.594c-1.776,0.785-3.879,1.231-6.385,1.231c-4.314,0-7.441-1.809-9.697-4.456
						l0.665-4.227l13.63-1.046L404.165,133.594z"/>
					<path style="fill:#FFB8B5;" d="M398.215,93.819c0,0-7.592,10.555-19.258,11.295c0,0-0.37,24.628,15.554,24.628
						c15.925,0,15.925-18.147,15.554-24.813C410.066,104.929,400.067,100.115,398.215,93.819z"/>
					<g>
						<path style="fill:#182F58;" d="M389.671,109.951c0.104,0.799-0.46,1.532-1.26,1.635s-1.532-0.46-1.635-1.26
							c-0.104-0.799,0.46-1.532,1.26-1.635C388.835,108.587,389.567,109.151,389.671,109.951z"/>
						<path style="fill:#182F58;" d="M404.395,108.042c0.104,0.799-0.46,1.532-1.26,1.635c-0.799,0.104-1.532-0.46-1.635-1.26
							c-0.104-0.799,0.461-1.532,1.26-1.635C403.56,106.678,404.292,107.242,404.395,108.042z"/>
						<path style="fill:#D57C78;" d="M397.917,108.847c-0.391-1.05-1.993-0.375-1.602,0.673c1.1,2.952,1.464,5.958,1.107,9.088
							c-0.127,1.113,1.594,1.355,1.721,0.243C399.535,115.42,399.123,112.082,397.917,108.847z"/>
						<path style="fill:#182F58;" d="M405.57,102.521c-1.965-1.166-4.404-1.067-6.165,0.454c-0.844,0.729,0.212,2.11,1.062,1.375
							c1.12-0.967,2.733-1.229,4.042-0.452C405.462,104.462,406.533,103.092,405.57,102.521z"/>
						<path style="fill:#182F58;" d="M389.736,103.832c-2.164-0.758-4.487-0.386-6.253,1.099c-0.854,0.719,0.202,2.098,1.062,1.375
							c1.279-1.075,2.924-1.431,4.514-0.874C390.113,105.802,390.793,104.202,389.736,103.832z"/>
					</g>
					<path style="fill:#FFFFFF;" d="M392.704,120.898c0.688-0.117,1.421,0.124,1.928,0.604c0.507,0.479,0.788,1.181,0.784,1.879
						c-0.003,0.465-0.168,0.983-0.586,1.188c-0.484,0.238-1.06-0.045-1.482-0.38c-0.535-0.425-0.994-0.946-1.346-1.531
						c-0.193-0.32-0.359-0.701-0.251-1.059C391.869,121.201,392.294,120.968,392.704,120.898z"/>
					<g>
						<polygon style="fill:#07587A;" points="438.974,134.547 467.737,151.067 445.469,192.701 416.023,180.187 						"/>
						<path style="fill:#182F58;" d="M467.737,151.067c0,0,2.491,1.316,4.063,0l-22.297,42.706c0,0-2.922,1.001-4.034-1.072
							L467.737,151.067z"/>
						<polygon style="fill:#182F58;" points="471.8,151.067 486.379,139.173 460.794,184.483 449.503,193.773 						"/>
					</g>
					<path style="fill:#FFB8B5;" d="M470.632,199.891l-5.285-23.471c0,0,4.195-7.911,2.39-8.295
						c-1.806-0.383-6.406,6.517-6.406,6.517s-15.333-7.953-16.994-6.532c-1.661,1.421,10.989,7.673,10.989,7.673
						s-11.686-4.705-13.446-3.242c-1.76,1.463,11.756,6.957,11.756,6.957s-10.961-3.833-12.622-1.789
						c-1.661,2.044,11.372,6.133,11.372,6.133s-12.394-3.067-12.267-1.533c0.128,1.533,15.838,7.022,15.838,7.022l-1.046,25.055
						c0,0-0.184,13.436,8.847,13.436C473.297,227.822,474.341,219.307,470.632,199.891z"/>
					<path style="fill:#FFB8B5;" d="M370.885,202.116l1.266,4.887c0,0,6.294,22.286,20.374,29.518l-4.109,14.244
						c0,0-40.054-6.502-45.009-48.503l14.11-4.38L370.885,202.116z"/>
					<path style="fill:#5D3B4C;" d="M377.426,176.41l-0.166,0.96l-5.109,29.633c-12.446,2.963-28.744-4.741-28.744-4.741
						s3.26-14.52,9.186-33.272c5.927-18.764,22.818-25.105,22.818-25.105v0.095L377.426,176.41z"/>
					<path style="fill:#FFB44A;" d="M391.484,229.946h4.686c0,0,0.031,19.503-11.917,28.488l-3.068-1.972
						C381.185,256.462,391.265,246.82,391.484,229.946z"/>
					<path style="fill:#FFB44A;" d="M429.82,229.946h-4.686c0,0-0.031,19.503,11.917,28.488l3.068-1.972
						C440.119,256.462,430.039,246.82,429.82,229.946z"/>
					<polygon style="fill:#FFB44A;" points="347.852,434.584 381.832,434.584 379.999,446.043 350.519,446.043 					"/>
					<path style="fill:#FFB8B5;" d="M408.057,438.733l7.112,27.065h30.818c0,0-5.136-8.297-16.595-8.692l-0.79-16.792
						L408.057,438.733"/>
					<path style="fill:#5D3B4C;" d="M429.393,457.105l-0.035-0.75h-16.67l2.481,9.442h30.818
						C445.987,465.798,440.851,457.5,429.393,457.105z"/>
					<polygon style="fill:#FFB44A;" points="435.319,434.584 401.34,434.584 403.172,446.043 432.652,446.043 					"/>
				</g>
				<path style="fill:#FFB44A;" d="M419.766,266.257l-15.077,79.334l-0.237-10.621l-0.557,2.134
					c4.528-23.825,9.056-47.65,13.584-71.475C417.763,264.135,420.05,264.763,419.766,266.257z"/>
			</g>
			<polygon style="fill:#FFB44A;" points="388.956,186.702 418.833,185.178 417.59,216.992 393.159,218.216 			"/>
		</g>
		<g>
			<g>
				<polygon style="fill:#F79100;" points="112.764,277.727 126.559,243.202 148.817,260.465 123.279,285.797 				"/>
				<path style="fill:#D57C78;" d="M142.076,397.168l-40.899,39l-32.398-0.122c0,0,7.139-7.085,20.97-7.823l33.786-38.631
					L142.076,397.168z"/>
				<path style="fill:#182F58;" d="M213.067,228.816l-5.427-4.402l-6.432-1.342c2.234-11.196,13.029-20.447,24.392-21.545
					c11.363-1.098,23.042,5.941,27.379,16.502c1.68,4.091,2.361,8.622,4.707,12.371c5.1,8.149,16.07,10.005,23.723,15.823
					c7.36,5.595,11.394,15.125,10.749,24.348c-0.644,9.223-5.785,17.931-13.278,23.346s-17.16,7.568-26.322,6.328
					c-10.402-1.407-20.147-7.159-26.405-15.586c-6.258-8.427-8.946-19.419-7.285-29.784c0.772-4.817,2.442-9.559,2.178-14.43
					C220.784,235.571,217.945,228.816,213.067,228.816z"/>
				<path style="fill:#182F58;" d="M263.443,195.885c-0.799-1.654-3.283-2.394-4.583-1.096c0.782-1.155,0.802-2.777,0.048-3.951
					c-0.754-1.174-2.221-1.907-3.597-1.676c0.882-1.91-0.313-4.476-2.344-5.029c-2.031-0.553-4.362,1.053-4.569,3.147
					c0.338-1.217-0.54-2.557-1.733-2.973c-1.193-0.416-2.558-0.04-3.568,0.719c-1.01,0.759-1.715,1.853-2.291,2.978
					c-2.848,5.568-2.857,12.5-0.021,18.074c1.347,2.648,5.904,1.635,8.829,1.116c2.926-0.519,5.659-1.787,8.321-3.107
					c1.646-0.816,3.324-1.691,4.515-3.09C263.642,199.598,264.242,197.539,263.443,195.885z"/>
				<path style="fill:#D57C78;" d="M231.345,295.936l-12.989-3.332l-8.546,9.85l-37.73-22.517c0,0-0.381-10.719-2.633-10.344
					c-2.253,0.375-2.628,8.01-2.628,8.01s-8.01-11.39-10.388-9.763c-2.378,1.627,5.132,10.889,5.132,10.889
					s-9.262-8.135-11.39-6.258c-2.128,1.877,7.259,10.138,7.259,10.138s-9.762-6.383-10.764-4.756
					c-1.001,1.627,9.012,10.013,9.012,10.013s-6.633-2.128-7.635,0c-1.001,2.128,19.34,7.454,19.34,7.454l0.001-0.001
					c10.058,9.554,36.697,33.665,50.973,35.246c17.829,1.975,27.001-11.521,27.001-11.521l2.594-12.581L231.345,295.936z"/>
				<path style="fill:#C6395B;" d="M234.336,260.471c-0.067,0.222-0.137,0.44-0.203,0.663c-3.031,10.242-15.777,31.47-15.777,31.47
					l24.426,29.415c16.759-11.918,25.107-36.099,25.107-36.099s2.381-5.952,1.746-15.438
					C259.12,263.426,247.143,258.496,234.336,260.471z"/>
				<path style="fill:#FFB8B5;" d="M120.666,397.049l-40.752,39.116H47.515c0,0,7.112-7.112,20.941-7.902l33.641-38.72
					L120.666,397.049z"/>
				<polygon style="fill:#FFB44A;" points="112.764,277.727 138.051,244.538 189.494,282.073 163.733,316.842 				"/>
				<path style="fill:#F79100;" d="M163.733,316.842l-0.687,0.307c-2.808,1.256-6.079,0.874-8.521-0.996l-38.742-29.656
					c-2.679-2.051-3.868-5.507-3.018-8.771l0,0L163.733,316.842z"/>
				<path style="fill:#FFB8B5;" d="M257.028,250.868l-18.467,17.367l-9.304-15.961l-5.48-9.392l6.047-9.032l2.953,0.523
					c0.033,0.011,0.207,0.109,0.501,0.294c0.49,0.327,1.329,0.883,2.408,1.613c1.416,0.948,3.236,2.19,5.219,3.541
					C247.952,244.626,257.028,250.868,257.028,250.868z"/>
				<path style="fill:#D57C78;" d="M240.903,239.821c0,0-1.885,11.124-11.647,12.453l-5.48-9.392l6.047-9.032l2.953,0.523
					c0.033,0.011,0.207,0.109,0.501,0.294c0.218,1.231,0.588,2.07,1.155,2.114c0.403,0.033,0.828-0.152,1.253-0.501
					C237.101,237.228,238.92,238.47,240.903,239.821z"/>
				<path style="fill:#FFB8B5;" d="M207.64,224.414l8.577,1.623l2.594-5.003v5.003l5.003,1.853l1.112-3.428
					c0,0-0.926,12.137,1.297,12.322c2.224,0.185,5.188-6.485,5.188-6.485c1.781-1.36,4.832-1.007,6.419,0.576
					c1.586,1.583,1.776,4.361,0.42,6.145c-1.282,1.686-3.501,2.297-5.558,2.805c0,0-2.48,14.624-16.475,12.339
					C198.058,249.198,207.64,224.414,207.64,224.414z"/>
				<path style="fill:#FE5175;" d="M254.212,395.469c-16.559,3.271-27.251-0.557-33.521-4.635c-5.097-3.331-7.266-6.827-7.266-6.827
					l-0.688,1.683l-14.236,35.062c-30.024,6.33-44.248-18.965-59.657-15.006c-6.164,1.576-14.212-0.379-21.656-3.295
					c-0.747-0.296-1.482-0.593-2.205-0.901c-10.241-4.315-18.811-10.028-18.811-10.028l62.206-62.206
					c5.452-5.464,12.849-8.522,20.565-8.522h57.097l14.224-72.352c26.859-4.789,42.269,56.552,43.335,79.464
					C294.667,350.818,284.236,389.542,254.212,395.469z"/>
				<path style="fill:#C6395B;" d="M213.228,383.661c-2.542-3.054-5.395-5.873-8.809-7.942c-3.356-2.033-6.994-3.451-10.688-4.741
					c-1.994-0.697-4.117-1.247-6.041-2.12c-2.142-0.972-3.949-2.391-5.827-3.783c-1.988-1.475-4.374-3.33-6.994-3.232
					c-2.638,0.099-5.047,1.182-7.257,2.571c-4.803,3.019-9.526,6.122-14.371,9.093c-5.083,3.118-10.124,6.303-15.136,9.533
					c-4.665,3.006-9.437,5.913-13.986,9.093c-3.154,2.206-7.784,5.534-8.42,9.709c0.494,0.204,0.985,0.408,1.49,0.609
					c7.444,2.916,15.492,4.872,21.656,3.295c15.409-3.959,29.633,21.336,59.657,15.006l14.236-35.062l0.586-1.434
					C213.291,384.058,213.261,383.859,213.228,383.661z"/>
				<path style="fill:#FFB8B5;" d="M230.111,303.547l-12.989-3.332l-8.546,9.85l-37.731-22.517c0,0-0.38-10.719-2.633-10.344
					c-2.253,0.376-2.628,8.01-2.628,8.01s-8.01-11.39-10.388-9.763c-2.378,1.627,5.132,10.889,5.132,10.889
					s-9.262-8.135-11.39-6.258c-2.128,1.877,7.259,10.138,7.259,10.138s-9.763-6.383-10.764-4.756
					c-1.001,1.627,9.012,10.013,9.012,10.013s-6.634-2.128-7.635,0c-1.001,2.128,19.34,7.454,19.34,7.454l0.001-0.001
					c10.058,9.554,36.697,33.665,50.972,35.246c17.829,1.976,27.001-11.521,27.001-11.521l2.594-12.581L230.111,303.547z"/>
				<path style="fill:#FE5175;" d="M266.655,293.531c0,0-8.348,24.181-25.107,36.099l-24.426-29.415
					c0,0,12.746-21.229,15.777-31.471c3.031-10.242,7.114-18.823,17.363-20.305c0,0,13.824,7.814,16.99,21.781
					C270.416,284.186,266.655,293.531,266.655,293.531z"/>
			</g>
			<path style="fill:#C6395B;" d="M220.691,390.834c-5.097-3.331-7.266-6.827-7.266-6.827l-0.688,1.683
				c-5.678-5.595-12.114-10.016-20.494-13.05c-6.484-2.347-12.956-5.061-17.187-10.182c-0.059,0.071-0.142,0.142-0.237,0.201
				c-10.846,7.005-21.691,14.01-32.549,21.016c-7.918,5.109-19.57,10.336-25.081,18.775c-0.747-0.296-1.482-0.593-2.205-0.901
				c4.658-7.254,13.252-11.628,20.352-16.215c12.766-8.238,25.52-16.476,38.286-24.714c0.024-0.024,0.047-0.035,0.083-0.047
				c-0.771-1.185-1.434-2.477-1.956-3.911c-0.533-1.434,1.754-2.051,2.276-0.628c4.883,13.311,21.288,13.098,31.529,20.091
				C211.481,380.178,216.27,385.311,220.691,390.834z"/>
			<g>
				<path style="fill:#182F58;" d="M214.574,234.255c-0.006,0.806-0.665,1.455-1.471,1.448c-0.806-0.006-1.455-0.665-1.448-1.471
					c0.006-0.806,0.665-1.455,1.471-1.448C213.932,232.79,214.58,233.449,214.574,234.255z"/>
				<path style="fill:#182F58;" d="M216.49,228.946c-1.788-1.422-4.217-1.657-6.169-0.39c-0.935,0.607-0.078,2.119,0.865,1.507
					c1.241-0.806,2.875-0.845,4.066,0.103C216.118,230.854,217.367,229.643,216.49,228.946z"/>
				<path style="fill:#D57C78;" d="M206.399,241.591c-0.15-0.046-0.299-0.092-0.449-0.138c0.303-2.13,0.607-4.26,0.91-6.39
					c0.196-1.374-1.904-1.966-2.101-0.579c-0.354,2.483-0.707,4.966-1.061,7.449c-0.086,0.602,0.139,1.149,0.761,1.34
					c0.453,0.139,0.907,0.279,1.36,0.419C207.166,244.106,207.738,242.003,206.399,241.591z"/>
				<path style="fill:#FFFFFF;" d="M217.406,240.978c-1.63,2.466-4.513,4.054-7.469,4.115c1.505,1.092,3.8,1.39,5.401,0.445
					C216.94,244.594,217.634,242.824,217.406,240.978z"/>
			</g>
			<path style="fill:#C6395B;" d="M266.161,282.614c-1.931,19.183-9.55,37.848-26.312,48.574
				c-15.701,10.048-38.108,7.609-48.614-8.662c-0.759-1.176-2.646-0.085-1.882,1.1c10.299,15.951,30.634,19.284,47.211,11.823
				c20.431-9.195,29.667-31.887,31.775-52.835C268.481,281.216,266.301,281.23,266.161,282.614z"/>
		</g>
		<g>
			<path style="fill:#F7A4A0;" d="M613.444,442.343v23.454h26.707c0,0-4.451-7.19-14.381-7.533l5.478-14.552L613.444,442.343"/>
			<path style="fill:#182F58;" d="M625.771,458.265l0.579-1.538h-12.905v9.071h26.707
				C640.152,465.798,635.7,458.607,625.771,458.265z"/>
			<polygon style="fill:#182F58;" points="633.352,230.522 635.309,449.416 608.696,449.416 593.832,262.77 597.131,236.992 			"/>
			<path style="fill:#F7A4A0;" d="M556.826,442.343v23.454h26.707c0,0-4.451-7.19-14.381-7.533l5.478-14.552L556.826,442.343"/>
			<path style="fill:#182F58;" d="M569.152,458.265l0.117-0.31h-12.443v7.842h26.707
				C583.533,465.798,579.082,458.607,569.152,458.265z"/>
			<polygon style="fill:#182F58;" points="611.671,236.992 576.224,449.416 555.876,449.416 555.876,236.992 			"/>
			<path style="fill:#F7A4A0;" d="M652.799,200.234c-0.211,8.687-1.186,16.681-3.991,17.831c-0.951,0.387-2.066,0.352-3.287,0
				c-2.207-0.611-4.731-2.242-7.172-4.191c0-0.012-0.012-0.012-0.023-0.012c-5.4-4.32-10.342-10.178-10.342-10.178l-0.446-20.965
				l-0.74-35.087l7.337-15.73h5.482c0,0,10.659,12.866,12.42,44.49C652.036,176.392,653.069,188.894,652.799,200.234z"/>
			<path style="fill:#F7A4A0;" d="M559.007,136.668l-21.13-4.766c0,0-17.999,10.537-13.304,35.486
				c4.696,24.949,18.391,58.991,25.825,61.73c0,0,4.304,1.956,8.608,2.348l5.869-89.997L559.007,136.668z"/>
			<path style="fill:#5D3B4C;" d="M634.921,166.038l3.122,70.949c-33.643,18.735-84.519,2.7-84.519,2.7l4.308-61.135
				c0.786-48.61-19.956-46.65-19.956-46.65c9.52-4.32,20.66-7.959,29.699-10.577c9.884-2.864,17.256-4.508,17.256-4.508
				c10.201,0.575,18.547,1.573,25.344,2.806c25.532,4.578,29.441,12.279,29.441,12.279
				C632.174,139.943,634.921,166.038,634.921,166.038z"/>
			<path style="fill:#925D77;" d="M568.283,150.365c-0.33-1.366-2.431-0.786-2.101,0.579c6.372,26.359,5.356,53.771-2.911,79.596
				c-0.43,1.342,1.675,1.912,2.101,0.579C573.752,204.938,574.742,177.083,568.283,150.365z"/>
			<g>
				<polygon style="fill:#008CC1;" points="581.224,160.025 614.935,166.034 611.671,215.815 579.327,211.268 				"/>
				<polygon style="fill:#07587A;" points="614.935,166.034 620.091,166.034 617.513,216.6 611.671,215.815 				"/>
				<polygon style="fill:#07587A;" points="620.091,166.034 641.907,151.012 637.838,203.284 617.513,216.6 				"/>
			</g>
			<path style="fill:#925D77;" d="M610.176,119.624c-0.2,5.447-2.618,14.087-15.448,16.505
				c-15.93,3.017-24.663-10.236-27.152-14.803c9.884-2.864,17.256-4.508,17.256-4.508
				C595.033,117.393,603.379,118.391,610.176,119.624z"/>
			<path style="fill:#F7A4A0;" d="M600.599,125.478c0,0,0,5.426-10.775,4.837c-11.309-0.61-14.675-10.121-14.675-10.121
				l2.451-14.196l2.081-11.995l2.506-0.381l17.029,14.392l0.458,5.807L600.599,125.478z"/>
			<path style="fill:#D57C78;" d="M599.673,113.82c-2.07,1.057-4.63,1.689-7.768,1.558c-8.367-0.37-12.442-4.729-14.305-9.381
				l2.081-11.995l2.506-0.381l17.029,14.392L599.673,113.82z"/>
			<path style="fill:#182F58;" d="M606.79,81.098l6.865-6.761c0,0,0.367-12.102-13.127-12.773
				c-13.495-0.671-25.2,2.013-26.467,21.323l2.609,5.815l5.517,4.921l4.995-0.373L606.79,81.098z"/>
			<path style="fill:#F7A4A0;" d="M591.205,70.96c0,0,10.728,10.331,22.449,3.377l-1.789,21.472
				c-0.253,3.036-1.125,6.012-2.722,8.607c-2.271,3.69-6.422,7.59-13.766,7.271c-13.708-0.596-15.893-11.92-15.695-17.682
				c-1.52-0.52-3.169-1.651-4.565-2.448s-2.663-1.89-3.413-3.311c-0.75-1.421-0.922-3.197-0.211-4.638
				c0.711-1.441,2.391-2.416,3.963-2.082c1.445,0.308,2.51,1.592,3.037,2.972c0.526,1.381,0.623,2.88,0.847,4.34
				c0.087,0.567,0.203,1.153,0.545,1.614s0.972,0.757,1.504,0.543c0.613-0.247,0.817-0.996,0.943-1.644c0.5-2.581,1-5.163,1.5-7.744
				C583.831,81.608,591.575,79.684,591.205,70.96z"/>
			<g>
				<path style="fill:#182F58;" d="M594.355,88.057c0,0.806-0.654,1.46-1.46,1.46c-0.806,0-1.46-0.654-1.46-1.46
					c0-0.806,0.654-1.46,1.46-1.46C593.701,86.597,594.355,87.25,594.355,88.057z"/>
				<path style="fill:#182F58;" d="M609.203,88.057c0,0.806-0.654,1.46-1.46,1.46c-0.806,0-1.46-0.654-1.46-1.46
					c0-0.806,0.654-1.46,1.46-1.46C608.549,86.597,609.203,87.25,609.203,88.057z"/>
				<path style="fill:#D57C78;" d="M602.675,88.022c-0.253-1.091-1.928-0.628-1.675,0.462c0.712,3.069,0.686,6.097-0.071,9.155
					c-0.269,1.088,1.406,1.549,1.675,0.462C603.433,94.749,603.455,91.385,602.675,88.022z"/>
				<path style="fill:#182F58;" d="M611.078,82.733c-1.799-1.409-4.23-1.624-6.172-0.343c-0.93,0.614-0.061,2.119,0.877,1.5
					c1.235-0.815,2.868-0.867,4.066,0.071C610.72,84.644,611.959,83.423,611.078,82.733z"/>
				<path style="fill:#182F58;" d="M595.206,81.997c-2.049-1.03-4.4-0.96-6.343,0.286c-0.939,0.603-0.069,2.107,0.877,1.5
					c1.406-0.902,3.084-1.043,4.589-0.286C595.327,83.999,596.207,82.5,595.206,81.997z"/>
				<path style="fill:#FFFFFF;" d="M592.895,98.721l11.21,1.765c0,0-3.407,5.247-7.211,4.466
					C593.09,104.172,592.895,98.721,592.895,98.721z"/>
			</g>
			<path style="fill:#182F58;" d="M587.534,93.997l13.752,2.575l12.369-1.814c0,0-4,8.72-11.666,3.804
				C601.989,98.562,593.328,104.472,587.534,93.997z"/>
			<path style="fill:#F7A4A0;" d="M552.746,166.034l4.97,14.173l11.073,25.043l31.815-11.775c0,0-0.224-8.443,1.569-8.966
				c1.793-0.523,2.017,6.874,2.017,6.874s9.19-8.667,10.46-7.995c1.27,0.673-5.454,9.265-5.454,9.265s7.546-7.023,8.667-6.127
				c1.121,0.897-6.799,9.564-6.799,9.564s7.397-5.753,8.294-4.931c0.897,0.822-6.426,7.546-6.426,7.546s6.799-4.109,7.546-2.914
				c0.747,1.195-10.161,7.098-10.161,7.098s-37.885,28.77-56.141,27.598l-4.952-5.672l-3.326-14.869L552.746,166.034z"/>
			<path style="fill:#F7A4A0;" d="M652.799,200.234c-0.211,8.687-1.186,16.681-3.991,17.831c-0.951,0.387-2.066,0.352-3.287,0
				c-2.453-1.362-4.872-2.782-7.172-4.191c0-0.012-0.012-0.012-0.023-0.012c-10.905-6.691-19.428-13.159-19.428-13.159
				s-10.905-5.905-10.166-7.102c0.716-1.15,6.996,2.582,7.513,2.888c-0.47-0.446-7.243-6.726-6.386-7.525
				c0.845-0.775,7.442,4.285,8.217,4.872c-0.786-0.88-7.783-8.652-6.726-9.497c1.127-0.904,8.675,6.128,8.675,6.128
				s-6.726-8.593-5.458-9.274c1.268-0.669,10.459,7.994,10.459,7.994s0.223-7.395,2.019-6.867c0.188,0.059,0.352,0.188,0.493,0.399
				c1.256,1.784,1.08,8.569,1.08,8.569L652.799,200.234z"/>
			<path style="fill:#D57C78;" d="M650.077,199.351c-3.41-3.005-7.437-4.742-11.957-5.192c-1.398-0.139-1.385,2.041,0,2.179
				c3.907,0.389,7.472,1.959,10.416,4.553C649.586,201.817,651.133,200.282,650.077,199.351z"/>
			<path style="fill:#D57C78;" d="M567.449,203.594c-4.158,5.163-9.708,8.483-16.227,9.691c-1.38,0.256-0.794,2.356,0.579,2.101
				c6.839-1.268,12.826-4.834,17.189-10.252C569.862,204.052,568.33,202.5,567.449,203.594z"/>
			<path style="fill:#66A6CC;" d="M607.666,249.171c0.091,21.42-3.78,42.465-11.456,62.459c-0.505,1.314,1.603,1.877,2.101,0.579
				c7.744-20.169,11.626-41.436,11.534-63.038C609.839,247.766,607.66,247.766,607.666,249.171z"/>
			<path style="fill:#66A6CC;" d="M572.339,247.541c0.1,5.527-2.369,10.629-6.866,13.88c-1.127,0.815-0.041,2.707,1.1,1.882
				c5.123-3.703,8.06-9.42,7.945-15.761C574.493,246.137,572.314,246.135,572.339,247.541z"/>
			<path style="fill:#66A6CC;" d="M631.596,251.961c-2.598-0.509-4.675-2.073-5.87-4.437c-0.634-1.254-2.514-0.151-1.882,1.1
				c1.425,2.819,4.072,4.831,7.173,5.438C632.39,254.331,632.975,252.231,631.596,251.961z"/>
		</g>
	</g>
</g>
</svg>
